<?xml version="1.0" standalone="no"?>
<!DOCTYPE svg PUBLIC "-//W3C//DTD SVG 20010904//EN"
 "http://www.w3.org/TR/2001/REC-SVG-20010904/DTD/svg10.dtd">
<svg version="1.0" xmlns="http://www.w3.org/2000/svg"
 width="692.000000pt" height="692.000000pt" viewBox="0 0 692.000000 692.000000"
 preserveAspectRatio="xMidYMid meet">
<metadata>
Created by potrace 1.11, written by Peter Selinger 2001-2013
</metadata>
<g transform="translate(0.000000,692.000000) scale(0.100000,-0.100000)"
fill="#000000" stroke="none">
<path d="M4683 5587 c-8 -13 13 -24 40 -22 33 2 28 30 -6 31 -15 1 -30 -3 -34
-9z"/>
<path d="M4882 5583 c2 -13 12 -18 33 -18 43 0 40 29 -3 33 -28 3 -33 0 -30
-15z"/>
<path d="M5077 5573 c-13 -12 15 -33 44 -33 31 0 40 23 13 34 -21 8 -49 8 -57
-1z"/>
<path d="M4493 5564 c-7 -3 -10 -11 -7 -19 6 -16 56 -5 62 13 4 12 -31 15 -55
6z"/>
<path d="M2140 5543 c-22 -16 -27 -55 -7 -71 17 -14 78 -18 98 -6 24 14 30 50
10 67 -23 21 -78 26 -101 10z"/>
<path d="M1928 5524 c-17 -37 0 -58 51 -62 48 -4 71 10 71 42 0 33 -19 46 -67
46 -37 0 -45 -4 -55 -26z"/>
<path d="M5273 5525 c-7 -21 12 -35 50 -35 43 0 30 29 -21 44 -16 5 -24 3 -29
-9z"/>
<path d="M1752 5519 c-28 -10 -35 -38 -17 -65 12 -19 21 -22 48 -17 17 3 37 6
42 7 29 3 34 60 7 75 -21 11 -50 11 -80 0z"/>
<path d="M2330 5514 c-23 -27 -10 -74 22 -80 7 -1 25 -4 39 -7 30 -6 42 0 57
30 17 30 -12 61 -63 69 -32 5 -44 2 -55 -12z"/>
<path d="M4312 5509 c-13 -5 -21 -13 -18 -18 8 -13 56 0 56 15 0 16 -6 16 -38
3z"/>
<path d="M1575 5473 c-47 -9 -56 -75 -12 -87 28 -7 90 24 93 47 5 35 -27 51
-81 40z"/>
<path d="M2528 5469 c-21 -12 -24 -62 -5 -76 21 -17 77 -32 93 -26 19 7 36 47
28 67 -3 8 -23 22 -45 30 -46 19 -48 19 -71 5z"/>
<path d="M5456 5454 c-4 -9 -5 -18 -4 -18 2 -1 14 -9 28 -17 14 -9 31 -14 38
-12 21 8 13 39 -13 51 -34 16 -42 15 -49 -4z"/>
<path d="M4131 5426 c-15 -8 -20 -16 -13 -20 15 -9 54 12 47 25 -7 11 -5 11
-34 -5z"/>
<path d="M2332 5422 c-14 -2 -29 -17 -41 -41 -16 -31 -18 -42 -8 -62 24 -47
78 -34 102 25 21 49 -4 86 -53 78z"/>
<path d="M1405 5400 c-50 -19 -69 -79 -29 -94 20 -8 83 24 90 46 10 33 -26 61
-61 48z"/>
<path d="M1720 5390 c-23 -23 -25 -39 -7 -65 21 -28 64 -13 72 25 12 54 -27
78 -65 40z"/>
<path d="M2700 5379 c-20 -36 -8 -62 38 -86 49 -24 64 -22 82 11 17 33 5 60
-35 79 -47 22 -72 21 -85 -4z"/>
<path d="M5626 5355 c-7 -18 31 -55 56 -55 27 0 22 35 -7 54 -30 20 -41 20
-49 1z"/>
<path d="M3966 5315 c-22 -17 -17 -29 7 -19 16 6 32 34 19 34 -4 0 -16 -7 -26
-15z"/>
<path d="M1211 5271 c-33 -31 -33 -54 -1 -71 12 -6 27 -2 53 15 28 20 34 29
30 47 -12 46 -39 49 -82 9z"/>
<path d="M2883 5288 c-65 -31 19 -145 84 -115 46 21 36 78 -18 110 -35 19 -36
20 -66 5z"/>
<path d="M4710 5248 c0 -15 5 -30 10 -33 13 -8 13 25 0 45 -8 12 -10 9 -10
-12z"/>
<path d="M5217 5240 c3 -11 9 -20 15 -20 5 0 4 9 -2 20 -6 11 -12 20 -14 20
-2 0 -2 -9 1 -20z"/>
<path d="M1655 5216 c-24 -37 -16 -80 16 -84 19 -2 28 3 37 23 14 31 16 75 3
75 -5 0 -16 3 -24 6 -10 3 -22 -4 -32 -20z"/>
<path d="M2238 5230 c-9 -6 -22 -26 -28 -45 -14 -43 0 -75 34 -75 27 0 37 11
56 59 13 32 12 35 -9 52 -26 22 -30 22 -53 9z"/>
<path d="M5776 5225 c-8 -21 37 -70 57 -62 23 9 21 29 -3 55 -24 26 -45 28
-54 7z"/>
<path d="M3825 5187 c-6 -7 -15 -18 -19 -25 -7 -11 -4 -11 13 0 12 7 21 18 21
25 0 16 -2 16 -15 0z"/>
<path d="M1215 5166 c-11 -8 -18 -27 -19 -52 -1 -32 2 -39 20 -42 25 -4 42 15
50 56 8 38 -22 60 -51 38z"/>
<path d="M2813 5165 c-24 -17 -44 -74 -36 -104 11 -44 85 -44 102 1 23 62 23
67 -3 93 -29 29 -34 30 -63 10z"/>
<path d="M1094 5160 c-33 -13 -57 -56 -44 -80 15 -29 44 -25 74 11 20 24 24
34 16 49 -14 26 -22 29 -46 20z"/>
<path d="M3027 5152 c-25 -28 -21 -50 18 -89 27 -27 40 -33 57 -28 55 16 62
64 17 106 -36 33 -69 37 -92 11z"/>
<path d="M4168 5144 c-8 -8 3 -44 13 -44 5 0 8 9 6 20 -4 23 -11 32 -19 24z"/>
<path d="M5692 5090 c0 -14 2 -19 5 -12 2 6 2 18 0 25 -3 6 -5 1 -5 -13z"/>
<path d="M5907 5075 c-16 -15 -16 -20 -4 -39 7 -11 17 -27 21 -34 5 -9 12 -9
27 -2 25 14 24 33 -4 66 -22 25 -24 26 -40 9z"/>
<path d="M4740 5066 c0 -3 4 -17 10 -31 11 -28 30 -26 25 3 -2 9 -4 20 -4 25
-1 7 -31 10 -31 3z"/>
<path d="M5255 5048 c6 -28 25 -48 25 -26 0 23 -11 48 -20 48 -5 0 -7 -10 -5
-22z"/>
<path d="M1613 5032 c-6 -4 -13 -18 -14 -32 -4 -49 0 -60 26 -60 19 0 26 7 33
33 14 50 -10 81 -45 59z"/>
<path d="M2165 5030 c-30 -48 -21 -95 20 -102 25 -4 56 57 45 87 -8 22 -54 33
-65 15z"/>
<path d="M3690 5018 c-12 -22 -12 -22 6 -6 10 10 15 20 12 24 -4 3 -12 -5 -18
-18z"/>
<path d="M3178 5023 c-9 -2 -21 -17 -26 -33 -20 -55 63 -133 105 -98 39 32 31
78 -21 120 -21 18 -28 19 -58 11z"/>
<path d="M947 4971 c-24 -41 -21 -60 9 -67 21 -5 31 -2 45 17 27 34 21 73 -11
77 -19 2 -30 -4 -43 -27z"/>
<path d="M1153 4968 c-30 -38 -15 -96 21 -82 35 14 36 94 1 94 -7 0 -17 -6
-22 -12z"/>
<path d="M2754 4962 c-6 -4 -15 -26 -18 -48 -6 -32 -3 -45 9 -58 29 -28 73
-14 79 26 1 7 4 18 7 23 6 12 5 24 -5 48 -8 17 -51 23 -72 9z"/>
<path d="M4178 4937 c-6 -30 1 -47 18 -47 9 0 14 11 14 35 0 40 -25 49 -32 12z"/>
<path d="M5738 4924 c-3 -5 -1 -20 5 -34 8 -20 11 -22 14 -8 5 20 -12 55 -19
42z"/>
<path d="M5991 4901 c-16 -10 -7 -64 15 -81 36 -31 59 24 28 68 -17 24 -22 26
-43 13z"/>
<path d="M4772 4848 c4 -43 33 -46 33 -3 0 21 -6 31 -18 33 -15 3 -18 -2 -15
-30z"/>
<path d="M5288 4868 c-6 -18 3 -58 13 -58 14 0 20 18 13 45 -7 27 -20 33 -26
13z"/>
<path d="M3292 4858 c-32 -16 -39 -54 -17 -95 21 -38 41 -52 69 -47 58 9 63
91 9 134 -29 23 -30 23 -61 8z"/>
<path d="M3586 4853 c-6 -14 -5 -15 5 -6 7 7 10 15 7 18 -3 3 -9 -2 -12 -12z"/>
<path d="M2128 4832 c-32 -39 -14 -111 24 -97 16 7 37 63 30 83 -8 24 -38 33
-54 14z"/>
<path d="M1581 4826 c-18 -22 -10 -79 11 -82 22 -3 31 10 35 50 4 40 -23 59
-46 32z"/>
<path d="M867 4788 c-15 -37 -12 -64 9 -72 23 -9 39 3 52 36 24 63 -36 98 -61
36z"/>
<path d="M1115 4771 c-13 -22 -12 -73 1 -78 21 -8 41 14 42 45 0 34 -28 56
-43 33z"/>
<path d="M2721 4756 c-15 -18 -20 -66 -9 -88 20 -42 78 -3 78 52 0 45 -43 67
-69 36z"/>
<path d="M4185 4762 c-14 -10 -12 -59 4 -74 10 -11 15 -9 26 5 7 10 12 26 10
35 -2 9 -4 23 -4 30 -1 13 -20 16 -36 4z"/>
<path d="M5770 4716 c0 -33 10 -57 21 -50 15 9 10 61 -6 68 -11 4 -15 -1 -15
-18z"/>
<path d="M6043 4713 c-17 -6 -16 -78 1 -92 26 -21 47 -2 44 41 -2 39 -20 60
-45 51z"/>
<path d="M3370 4670 c-23 -23 -25 -41 -9 -85 15 -41 43 -58 80 -50 41 9 53 57
26 105 -31 56 -62 65 -97 30z"/>
<path d="M4781 4668 c-8 -24 -4 -55 9 -63 16 -10 37 7 35 28 -1 12 -3 30 -4
40 -2 24 -30 21 -40 -5z"/>
<path d="M5309 4678 c-1 -1 -2 -18 -3 -35 -2 -26 2 -33 16 -33 16 0 19 6 16
32 -2 17 -9 33 -15 36 -7 2 -14 2 -14 0z"/>
<path d="M1576 4625 c-9 -9 -14 -26 -12 -38 3 -12 5 -25 5 -29 1 -5 10 -8 21
-8 17 0 20 7 20 39 0 46 -12 58 -34 36z"/>
<path d="M2102 4628 c-7 -7 -12 -27 -12 -44 0 -25 5 -34 21 -39 26 -9 39 8 39
51 0 20 -6 34 -16 38 -20 8 -18 8 -32 -6z"/>
<path d="M836 4608 c-20 -29 -20 -62 0 -79 23 -19 48 1 52 44 2 28 -1 38 -17
46 -16 9 -23 7 -35 -11z"/>
<path d="M4172 4568 c-16 -16 -15 -73 2 -87 15 -13 46 -5 47 13 0 6 2 20 4 30
8 42 -27 70 -53 44z"/>
<path d="M1100 4543 c0 -15 5 -35 10 -43 9 -13 11 -13 20 0 15 23 8 64 -12 68
-14 3 -18 -3 -18 -25z"/>
<path d="M2702 4548 c-8 -11 -10 -50 -4 -80 3 -12 37 -9 50 4 13 13 16 47 6
72 -7 19 -38 21 -52 4z"/>
<path d="M5778 4510 c-3 -18 1 -35 9 -42 18 -15 25 -6 26 33 3 46 -29 54 -35
9z"/>
<path d="M6042 4508 c-21 -26 -18 -83 5 -92 35 -14 65 60 37 89 -19 18 -28 19
-42 3z"/>
<path d="M3472 4499 c-45 -17 -47 -79 -4 -131 23 -27 68 -23 88 7 36 55 -26
146 -84 124z"/>
<path d="M4782 4487 c-9 -11 -16 -46 -13 -74 1 -17 37 -17 47 -1 4 7 8 25 9
41 2 32 -26 55 -43 34z"/>
<path d="M5312 4473 c-9 -17 -7 -61 3 -71 2 -3 11 -2 20 2 12 4 15 16 13 43
-3 41 -22 54 -36 26z"/>
<path d="M2101 4426 c-13 -15 -11 -52 3 -74 12 -20 36 5 36 38 0 35 -22 56
-39 36z"/>
<path d="M1579 4420 c-1 -5 -2 -16 -3 -22 -4 -23 15 -51 26 -40 14 14 16 55 3
64 -14 11 -25 10 -26 -2z"/>
<path d="M828 4403 c-7 -35 4 -72 23 -78 30 -10 41 4 37 48 -3 37 -7 42 -30
45 -19 2 -27 -2 -30 -15z"/>
<path d="M4158 4383 c-18 -4 -33 -56 -26 -90 4 -22 43 -30 64 -13 25 22 13
115 -15 109 -4 -1 -14 -3 -23 -6z"/>
<path d="M1117 4358 c-2 -7 0 -24 5 -37 12 -33 33 -12 24 23 -7 28 -21 34 -29
14z"/>
<path d="M2702 4347 c-11 -14 -10 -56 1 -74 13 -21 35 -3 39 33 5 39 -21 65
-40 41z"/>
<path d="M5779 4341 c-10 -4 -15 -18 -15 -41 1 -28 5 -35 21 -35 15 0 21 8 23
34 4 38 -6 52 -29 42z"/>
<path d="M3536 4301 c-23 -25 -14 -70 21 -105 32 -32 56 -33 83 -4 24 26 21
57 -9 98 -23 33 -71 38 -95 11z"/>
<path d="M6002 4308 c-6 -8 -13 -28 -17 -46 -4 -24 -1 -34 14 -41 29 -16 53 8
55 55 1 32 -2 39 -20 42 -11 2 -26 -3 -32 -10z"/>
<path d="M4745 4281 c-13 -43 -13 -61 1 -76 19 -19 28 -19 45 1 14 18 20 50
12 77 -6 24 -50 22 -58 -2z"/>
<path d="M5296 4275 c-11 -29 -6 -65 9 -71 24 -9 42 13 41 49 -1 24 -6 33 -22
35 -13 2 -24 -4 -28 -13z"/>
<path d="M883 4223 c-30 -11 -7 -93 26 -93 24 0 30 17 19 56 -8 33 -23 44 -45
37z"/>
<path d="M1604 4216 c-8 -21 -1 -49 14 -54 8 -2 12 7 12 27 0 33 -17 51 -26
27z"/>
<path d="M2112 4193 c2 -26 8 -38 18 -38 17 0 22 43 7 63 -18 23 -28 12 -25
-25z"/>
<path d="M3325 4189 c-4 -6 -5 -12 -2 -15 2 -3 7 2 10 11 7 17 1 20 -8 4z"/>
<path d="M4106 4178 c-31 -48 -21 -118 18 -118 42 0 83 94 53 118 -29 23 -56
23 -71 0z"/>
<path d="M1157 4163 c-2 -4 0 -19 6 -33 l10 -25 5 24 c4 24 -12 50 -21 34z"/>
<path d="M3662 4147 c-22 -10 -27 -23 -23 -62 2 -26 50 -75 74 -75 59 0 74 50
32 105 -28 37 -51 46 -83 32z"/>
<path d="M5725 4126 c-17 -41 -11 -66 17 -66 12 0 24 12 33 32 15 36 13 43
-16 58 -17 10 -21 6 -34 -24z"/>
<path d="M2709 4143 c-6 -35 -3 -63 8 -68 18 -6 27 18 19 50 -6 23 -24 35 -27
18z"/>
<path d="M5921 4119 c-36 -39 -34 -76 7 -84 30 -5 68 55 52 85 -14 26 -34 26
-59 -1z"/>
<path d="M4694 4074 c-16 -39 -12 -69 12 -78 24 -9 52 11 59 44 10 44 -2 70
-31 70 -19 0 -29 -8 -40 -36z"/>
<path d="M5261 4067 c-15 -43 -5 -67 25 -67 18 0 25 7 32 33 18 65 -36 97 -57
34z"/>
<path d="M953 4024 c-6 -16 18 -66 34 -71 5 -2 17 2 26 9 16 12 16 15 -3 46
-21 35 -47 42 -57 16z"/>
<path d="M3215 4020 c-10 -11 -13 -20 -7 -20 6 0 16 9 22 20 6 11 9 20 7 20
-2 0 -12 -9 -22 -20z"/>
<path d="M1637 3995 c3 -14 10 -25 15 -25 13 0 6 43 -8 47 -7 2 -10 -6 -7 -22z"/>
<path d="M2144 3998 c3 -13 5 -26 5 -30 1 -5 6 -8 11 -8 6 0 10 14 10 30 0 20
-5 30 -15 30 -10 0 -14 -7 -11 -22z"/>
<path d="M4052 3998 c-5 -7 -15 -29 -22 -50 -12 -32 -11 -40 4 -62 29 -45 80
-29 104 34 10 27 -1 69 -21 82 -19 12 -53 9 -65 -4z"/>
<path d="M3777 3977 c-22 -33 -1 -78 48 -101 36 -18 38 -17 57 1 30 31 29 55
-5 91 -38 39 -78 43 -100 9z"/>
<path d="M5803 3958 c-31 -35 -35 -46 -23 -68 15 -28 37 -25 70 11 29 30 30
54 6 71 -18 13 -32 9 -53 -14z"/>
<path d="M1210 3965 c0 -5 5 -17 10 -25 5 -8 10 -10 10 -5 0 6 -5 17 -10 25
-5 8 -10 11 -10 5z"/>
<path d="M5682 3961 c-35 -22 -45 -84 -16 -95 38 -15 80 57 53 90 -13 16 -19
17 -37 5z"/>
<path d="M2730 3916 c0 -14 5 -28 10 -31 6 -3 10 5 10 19 0 14 -4 28 -10 31
-6 3 -10 -5 -10 -19z"/>
<path d="M4646 3917 c-21 -16 -38 -66 -31 -88 8 -25 53 -36 69 -18 7 8 17 26
23 40 21 48 -23 95 -61 66z"/>
<path d="M5218 3893 c-33 -38 -26 -93 11 -93 23 0 37 17 46 53 12 48 -27 75
-57 40z"/>
<path d="M1070 3860 c-16 -29 49 -77 73 -54 10 10 -24 62 -45 67 -11 3 -22 -2
-28 -13z"/>
<path d="M3085 3860 c-10 -11 -13 -20 -8 -20 13 0 38 29 31 35 -3 3 -13 -4
-23 -15z"/>
<path d="M3936 3854 c-26 -26 -19 -60 17 -88 40 -31 68 -33 90 -8 25 27 21 50
-15 83 -36 32 -68 37 -92 13z"/>
<path d="M5647 3815 c-15 -14 -27 -30 -27 -35 0 -43 41 -53 84 -19 41 33 31
79 -17 79 -7 0 -25 -11 -40 -25z"/>
<path d="M1687 3799 c4 -13 8 -18 11 -10 2 7 -1 18 -6 23 -8 8 -9 4 -5 -13z"/>
<path d="M2190 3801 c0 -11 5 -23 10 -26 6 -3 10 3 10 14 0 11 -4 23 -10 26
-5 3 -10 -3 -10 -14z"/>
<path d="M4106 3744 c-34 -33 -14 -77 44 -100 34 -14 55 -8 70 21 17 31 8 50
-32 75 -40 24 -61 25 -82 4z"/>
<path d="M2937 3736 c-19 -15 -22 -26 -6 -26 15 0 41 28 31 33 -4 3 -15 0 -25
-7z"/>
<path d="M4568 3739 c-41 -23 -56 -89 -27 -115 25 -23 60 -12 82 27 21 38 22
63 1 83 -18 18 -32 20 -56 5z"/>
<path d="M1223 3733 c-7 -2 -13 -9 -13 -13 0 -15 43 -50 61 -50 30 0 30 28 0
50 -16 11 -31 20 -33 19 -1 0 -9 -3 -15 -6z"/>
<path d="M5152 3714 c-17 -12 -22 -24 -20 -47 3 -28 7 -32 33 -32 38 0 61 39
41 69 -17 27 -28 29 -54 10z"/>
<path d="M5482 3718 c-12 -6 -25 -22 -28 -35 -12 -44 31 -63 78 -35 33 19 41
37 28 63 -12 21 -43 24 -78 7z"/>
<path d="M4288 3659 c-41 -24 -11 -83 49 -95 62 -12 98 41 54 80 -24 22 -79
30 -103 15z"/>
<path d="M5293 3640 c-33 -13 -40 -50 -13 -72 20 -16 25 -16 57 -3 20 8 37 15
38 15 1 0 5 8 8 19 11 43 -33 64 -90 41z"/>
<path d="M2773 3627 c-25 -11 -31 -27 -10 -27 19 0 40 16 36 28 -3 6 -12 6
-26 -1z"/>
<path d="M1386 3615 c-10 -26 63 -61 78 -37 7 11 -5 27 -31 41 -29 15 -40 14
-47 -4z"/>
<path d="M4475 3586 c-22 -33 -7 -59 39 -73 48 -15 81 2 81 42 0 54 -90 77
-120 31z"/>
<path d="M5078 3578 c-13 -13 -15 -24 -9 -40 7 -20 16 -23 56 -22 49 0 65 12
65 51 0 37 -79 44 -112 11z"/>
<path d="M4675 3556 c-13 -19 -14 -29 -5 -45 6 -12 16 -21 23 -22 7 0 26 -2
44 -4 22 -2 37 3 49 17 17 18 17 22 3 46 -12 21 -23 28 -56 30 -35 3 -44 -1
-58 -22z"/>
<path d="M4886 3566 c-35 -29 -21 -75 24 -78 57 -2 71 2 81 28 7 21 6 31 -6
44 -17 19 -78 23 -99 6z"/>
<path d="M1572 3534 c4 -24 54 -42 70 -26 16 16 1 30 -41 38 -29 6 -33 4 -29
-12z"/>
<path d="M2570 3535 c-10 -12 -9 -15 7 -15 10 0 28 7 39 15 18 14 18 14 -7 15
-15 0 -32 -7 -39 -15z"/>
<path d="M1770 3481 c0 -18 44 -36 62 -24 13 7 9 33 -4 34 -7 0 -23 2 -35 5
-17 3 -23 -1 -23 -15z"/>
<path d="M2381 3491 c-7 -5 -11 -13 -8 -19 9 -14 57 -2 57 14 0 16 -28 18 -49
5z"/>
<path d="M1972 3453 c3 -17 39 -25 59 -12 19 11 0 29 -32 29 -23 0 -30 -4 -27
-17z"/>
<path d="M2170 3455 c0 -12 8 -16 33 -13 17 2 32 8 32 13 0 6 -15 11 -32 13
-25 3 -33 -1 -33 -13z"/>
<path d="M1130 3078 c-19 -4 -47 -10 -62 -13 -79 -15 -218 -102 -273 -170
-124 -154 -176 -347 -151 -568 40 -350 276 -566 610 -560 130 3 274 67 356
159 77 85 145 231 152 324 3 34 2 35 -36 35 -32 0 -40 -4 -41 -20 -7 -82 -46
-181 -99 -250 -119 -154 -304 -214 -491 -161 -259 75 -409 343 -372 666 34
301 254 506 529 495 91 -4 120 -10 184 -39 109 -50 186 -137 222 -253 6 -17 7
-34 4 -38 -4 -3 13 -5 38 -3 34 2 44 7 42 18 -2 8 -6 24 -8 35 -12 64 -78 172
-137 226 -50 45 -142 93 -212 110 -61 14 -207 18 -255 7z"/>
<path d="M3928 3084 c-2 -1 -23 -5 -48 -7 -150 -18 -316 -138 -394 -287 -66
-126 -88 -219 -88 -375 -1 -138 14 -212 65 -325 92 -208 305 -334 545 -323
194 8 350 94 433 237 l29 51 -1 -124 c-2 -127 3 -143 40 -136 9 2 19 4 22 4 8
1 8 611 0 612 -20 4 -521 3 -523 -1 0 -3 -2 -17 -3 -32 -2 -33 -26 -30 245
-32 l215 -1 1 -55 c1 -67 -28 -179 -62 -238 -38 -65 -105 -128 -170 -160 -89
-45 -119 -52 -224 -56 -240 -9 -425 120 -501 349 -25 75 -32 127 -31 235 1
116 1 116 23 198 38 143 114 253 223 324 73 47 145 69 240 73 197 9 344 -71
431 -236 19 -37 35 -76 35 -88 0 -12 6 -21 13 -22 6 0 25 -2 41 -4 28 -4 28
-3 23 36 -21 158 -191 327 -372 369 -44 11 -200 21 -207 14z"/>
<path d="M1935 3048 c-3 -7 -4 -292 -3 -632 l3 -620 28 -1 c15 -1 30 2 33 7 8
13 7 1235 -1 1248 -9 14 -55 13 -60 -2z"/>
<path d="M2230 2964 l0 -92 33 1 32 2 0 90 0 90 -32 1 -33 1 0 -93z"/>
<path d="M2823 2715 c-21 -6 -41 -12 -46 -13 -4 0 -30 -13 -57 -28 -50 -27
-100 -80 -122 -130 -12 -26 -13 -20 -18 66 l-5 95 -30 0 -30 0 0 -455 0 -454
33 -1 32 -1 1 271 c1 322 2 339 36 415 34 74 115 153 170 165 10 2 32 8 48 13
75 22 200 -6 252 -57 36 -35 63 -97 69 -159 3 -31 6 -190 7 -352 l2 -294 33
-1 33 -1 -3 356 c-3 348 -3 356 -27 407 -32 72 -95 128 -168 149 -69 20 -158
24 -210 9z"/>
<path d="M5015 2715 c-230 -53 -360 -301 -309 -594 39 -224 192 -353 411 -346
178 7 307 101 358 263 18 59 13 73 -28 65 -17 -3 -29 -20 -45 -63 -39 -100
-119 -174 -212 -196 -224 -52 -410 96 -422 336 l-3 55 335 2 c184 1 350 3 369
3 l34 0 -7 85 c-18 234 -159 388 -366 398 -36 2 -87 -2 -115 -8z m165 -60
c131 -29 224 -147 245 -313 l5 -42 -333 2 c-245 2 -331 6 -330 15 1 6 5 26 8
45 36 214 207 338 405 293z"/>
<path d="M5948 2709 c-93 -27 -154 -74 -203 -155 l-23 -37 2 91 c0 51 -1 93
-4 93 -17 5 -60 4 -61 -1 -3 -14 -5 -886 -2 -896 4 -12 48 -13 59 -2 4 4 7
135 8 290 2 291 7 332 46 409 64 124 219 190 361 153 83 -21 145 -87 165 -174
4 -19 9 -179 10 -355 1 -176 2 -322 3 -325 1 -3 16 -5 34 -5 l32 1 0 319 c1
348 -5 402 -52 482 -62 105 -230 156 -375 112z"/>
<path d="M2242 2702 c-10 -7 -12 -105 -10 -457 l3 -449 27 -1 c18 -1 29 4 32
14 8 30 4 891 -4 891 -5 0 -14 2 -22 5 -7 3 -19 1 -26 -3z"/>
<path d="M805 1524 c-20 -7 -47 -22 -60 -34 -50 -47 -66 -170 -31 -238 65
-127 266 -112 291 22 10 48 -19 50 -34 3 -35 -105 -172 -113 -221 -13 -53 111
5 239 109 239 46 0 87 -23 103 -59 6 -13 19 -24 30 -24 22 0 22 3 3 40 -32 62
-115 90 -190 64z"/>
<path d="M2465 1524 c-71 -24 -106 -76 -110 -164 -7 -122 67 -202 181 -195 40
2 94 29 94 46 0 5 5 9 10 9 6 0 10 -12 10 -26 0 -16 5 -24 13 -22 8 3 12 32
13 91 l2 87 -79 0 c-63 0 -77 -3 -73 -14 4 -9 22 -14 56 -14 60 -1 72 -13 54
-56 -41 -101 -188 -96 -234 7 -42 96 15 220 106 231 41 4 109 -28 118 -57 7
-24 24 -38 36 -31 16 10 8 34 -22 68 -42 47 -109 63 -175 40z"/>
<path d="M1064 1519 c-4 -7 -7 -71 -6 -143 1 -211 1 -206 17 -206 15 0 16 6
16 85 0 269 -3 302 -27 264z"/>
<path d="M1157 1524 c-12 -13 -7 -42 8 -48 15 -5 16 -3 19 31 1 17 -16 28 -27
17z"/>
<path d="M1519 1526 c-4 -22 -2 -46 4 -46 4 0 12 0 18 0 14 0 7 42 -8 48 -7 2
-13 1 -14 -2z"/>
<path d="M2137 1524 c-4 -4 -7 -85 -7 -181 0 -141 3 -173 14 -173 21 0 22 10
21 189 0 154 -6 187 -28 165z"/>
<path d="M4378 1528 c0 -2 -2 -83 -3 -180 -2 -167 -1 -178 17 -178 16 0 18 9
18 78 l0 78 72 2 c107 3 122 -13 131 -135 1 -15 8 -23 20 -23 16 0 17 6 12 53
-9 77 -15 96 -36 108 -18 9 -18 11 7 32 27 24 38 77 22 113 -17 37 -48 48
-155 51 -57 2 -104 2 -105 1z m217 -54 c8 -10 15 -32 15 -47 0 -54 -44 -75
-145 -69 l-55 4 0 68 0 68 85 -2 c71 -3 88 -6 100 -22z"/>
<path d="M1310 1419 c-30 -23 -41 -24 -34 -4 4 9 0 15 -10 15 -20 0 -19 9 -21
-137 -1 -110 0 -123 15 -123 15 0 17 11 16 81 -1 89 11 131 43 148 26 15 72 6
88 -16 14 -19 15 -25 16 -135 0 -66 3 -78 17 -78 14 0 16 13 15 103 -1 58 -6
111 -13 124 -21 38 -95 51 -132 22z"/>
<path d="M1675 1427 c-66 -19 -99 -119 -65 -194 33 -74 132 -94 185 -37 32 34
38 64 14 64 -10 0 -19 -5 -19 -10 0 -21 -49 -60 -75 -60 -16 0 -38 12 -56 29
-82 82 15 241 104 171 15 -12 27 -27 27 -34 0 -7 7 -13 15 -13 40 0 -11 86
-52 88 -10 0 -25 2 -33 3 -8 1 -29 -1 -45 -7z"/>
<path d="M1935 1432 c-28 -6 -65 -42 -65 -63 0 -31 19 -31 35 1 8 16 21 30 28
31 6 0 24 3 39 5 38 6 71 -27 59 -58 -6 -18 -19 -24 -57 -29 -108 -15 -134
-41 -110 -117 16 -48 142 -51 161 -4 6 15 8 14 16 -5 6 -16 17 -23 34 -23 29
0 30 3 10 23 -10 10 -15 41 -16 105 -1 81 -4 93 -24 112 -23 22 -71 31 -110
22z m99 -164 c-7 -62 -89 -102 -128 -62 -37 37 -6 77 68 88 22 4 42 9 44 11
11 11 19 -7 16 -37z"/>
<path d="M2795 1426 c-42 -18 -67 -59 -70 -115 -5 -111 64 -171 163 -140 43
14 83 86 47 86 -8 0 -15 -6 -15 -13 0 -20 -50 -54 -80 -54 -35 0 -80 42 -80
75 l0 25 100 0 100 0 -7 33 c-8 45 -30 85 -52 96 -32 18 -75 20 -106 7z m81
-25 c14 -1 50 -68 41 -77 -3 -4 -40 -7 -82 -8 -71 -1 -75 0 -75 22 0 12 5 22
10 22 6 0 10 6 10 13 0 17 37 35 65 32 11 -1 25 -3 31 -4z"/>
<path d="M3074 1428 c-10 -6 -25 -18 -31 -26 -11 -14 -13 -13 -13 6 0 23 -25
31 -32 10 -2 -7 -3 -65 -3 -128 1 -99 4 -115 18 -118 15 -3 17 7 17 82 0 118
13 143 81 152 49 6 63 -24 64 -134 1 -84 3 -97 18 -100 16 -3 18 6 16 103 -1
93 -4 109 -23 131 -23 27 -80 38 -112 22z"/>
<path d="M3318 1418 c-76 -44 -85 -170 -16 -229 22 -20 23 -20 75 -25 38 -3
91 29 111 66 18 35 9 135 -15 162 -41 45 -103 56 -155 26z m124 -40 c10 -12
18 -26 19 -32 0 -6 2 -22 5 -35 7 -36 -14 -87 -41 -105 -37 -25 -73 -20 -107
14 -28 28 -30 35 -26 85 5 58 25 91 62 98 34 7 68 -3 88 -25z"/>
<path d="M3616 1420 c-29 -14 -36 -15 -36 -4 0 21 -30 17 -31 -3 -1 -26 -1
-216 0 -230 1 -7 7 -13 15 -13 11 0 15 22 18 100 3 109 11 125 63 134 54 10
65 -13 65 -131 0 -94 2 -104 17 -101 15 3 18 16 18 88 1 98 8 126 36 141 29
15 77 2 85 -24 5 -12 9 -60 10 -107 2 -105 1 -100 20 -100 14 0 15 15 12 110
-3 97 -6 112 -25 131 -12 12 -34 23 -50 24 -33 2 -83 -20 -83 -37 0 -6 -10 -2
-22 10 -32 29 -71 34 -112 12z"/>
<path d="M4031 1428 c-35 -13 -71 -55 -73 -86 0 -15 -2 -38 -2 -52 -6 -89 72
-147 159 -119 34 11 68 52 63 76 -2 14 -11 9 -40 -20 -46 -46 -87 -50 -123
-11 -14 15 -25 38 -25 50 0 24 2 24 100 24 l100 0 -6 37 c-7 43 -36 89 -62 97
-38 12 -68 13 -91 4z m70 -29 c14 -6 33 -26 42 -45 l17 -34 -38 -1 c-75 -3
-123 -1 -128 4 -9 9 6 47 27 66 22 21 44 23 80 10z"/>
<path d="M4765 1430 c-11 -4 -31 -19 -44 -34 -46 -49 -37 -178 13 -212 28 -18
93 -25 123 -13 30 11 66 70 52 84 -10 10 -18 3 -44 -39 -5 -9 -26 -19 -46 -22
-28 -5 -41 -1 -61 17 -14 13 -29 36 -32 52 l-6 27 101 0 101 0 -7 43 c-12 75
-84 122 -150 97z m80 -36 c22 -15 52 -73 37 -75 -51 -6 -162 -2 -162 6 1 21
28 58 51 71 32 17 45 17 74 -2z"/>
<path d="M5019 1433 c-87 -13 -80 -123 9 -139 83 -15 122 -59 79 -89 -43 -30
-100 -17 -123 27 -18 35 -39 25 -29 -14 17 -67 160 -74 195 -8 22 40 -11 92
-65 103 -76 16 -85 20 -91 44 -4 13 -2 29 3 34 28 28 107 14 116 -22 6 -24 37
-26 32 -1 -2 9 -4 20 -4 24 -3 23 -76 47 -122 41z"/>
<path d="M5261 1424 c-60 -25 -88 -112 -60 -188 32 -88 172 -97 215 -14 36 70
10 175 -49 199 -42 18 -69 18 -106 3z m99 -29 c24 -15 42 -69 37 -114 -12
-105 -134 -126 -166 -28 -12 37 -8 87 11 116 21 34 83 48 118 26z"/>
<path d="M5954 1422 c-61 -28 -86 -117 -54 -189 27 -60 89 -83 158 -59 23 8
52 53 52 81 0 23 -19 18 -30 -9 -11 -30 -47 -56 -78 -56 -13 0 -36 13 -52 29
-26 25 -29 34 -27 85 3 64 23 92 74 102 27 5 37 1 70 -32 29 -30 39 -34 41
-22 2 9 -4 28 -13 42 -27 40 -89 53 -141 28z"/>
<path d="M6220 1426 c-48 -15 -74 -64 -72 -133 1 -90 49 -136 132 -128 46 5
75 28 85 67 5 18 2 25 -9 25 -9 0 -16 -6 -16 -13 0 -20 -50 -54 -79 -54 -37 1
-69 29 -77 68 l-6 32 100 0 100 0 -5 38 c-6 43 -46 102 -71 103 -9 0 -24 2
-32 4 -8 1 -31 -3 -50 -9z m88 -34 c13 -10 24 -30 25 -47 l2 -29 -65 -1 c-36
0 -71 1 -77 3 -21 7 -15 32 15 61 32 32 69 37 100 13z"/>
<path d="M1151 1300 c0 -107 2 -130 14 -130 18 0 17 -8 19 125 2 121 0 135
-20 135 -11 0 -13 -27 -13 -130z"/>
<path d="M1515 1303 c0 -113 2 -128 18 -131 15 -3 17 9 17 127 0 119 -2 131
-18 131 -16 0 -17 -12 -17 -127z"/>
<path d="M5478 1378 c-5 -84 7 -175 26 -193 24 -25 85 -26 124 -4 26 15 32 16
32 4 0 -8 7 -15 15 -15 13 0 15 21 15 130 0 109 -2 130 -15 130 -9 0 -15 -10
-16 -27 -7 -167 -6 -166 -29 -191 -24 -25 -67 -29 -95 -8 -16 12 -20 28 -21
98 -2 45 -3 93 -3 106 -1 12 -7 22 -15 22 -11 0 -16 -15 -18 -52z"/>
<path d="M5750 1300 c0 -109 2 -130 15 -130 8 0 15 8 16 18 0 9 1 50 2 89 2
79 19 109 66 118 29 5 35 11 26 24 -11 19 -43 12 -70 -14 l-25 -26 0 26 c0 16
-6 25 -15 25 -13 0 -15 -21 -15 -130z"/>
</g>
</svg>
